HIERARCHY
ROOT pelvis
{
  OFFSET 0 100 0
  CHANNELS 6 Xposition Yposition Zposition Zrotation Xrotation Yrotation
  JOINT pelvis_right_femur
  {
    OFFSET -10.78128 -3.44521 -0.5502486
    CHANNELS 3 Zrotation Xrotation Yrotation
    JOINT right_femur_tibia
    {
      OFFSET -0.8047443 -44.0398 -0.1307829
      CHANNELS 3 Zrotation Xrotation Yrotation
      JOINT right_tibia_foot
      {
        OFFSET 3.006224 -47.83518 -5
        CHANNELS 3 Zrotation Xrotation Yrotation
        End Site
        {
          OFFSET 0 -5 15
        }
      }
    }
  }
  JOINT pelvis_left_femur
  {
    OFFSET 10.78128 -3.44521 -0.5502486
    CHANNELS 3 Zrotation Xrotation Yrotation
    JOINT left_femur_tibia
    {
      OFFSET 0.8047443 -44.0398 -0.1307829
      CHANNELS 3 Zrotation Xrotation Yrotation
      JOINT left_tibia_foot
      {
        OFFSET -4.370144 -48.10324 -4.275266
        CHANNELS 3 Zrotation Xrotation Yrotation
        End Site
        {
          OFFSET 0 -5 15
        }
      }
    }
  }
  JOINT pelvis_spine1
  {
    OFFSET 0 6.468898 -3.129235
    CHANNELS 3 Zrotation Xrotation Yrotation
    JOINT spine1
    {
      OFFSET 0 23.15396 4.99043
      CHANNELS 3 Zrotation Xrotation Yrotation
      JOINT spine2
      {
        OFFSET 0 20.79997 -5.064912
        CHANNELS 3 Zrotation Xrotation Yrotation
        JOINT neck
        {
          OFFSET 0 14.38658 9.616178
          CHANNELS 3 Zrotation Xrotation Yrotation
          End Site
          {
            OFFSET 0 20 0
          }
        }
      }
      JOINT right_manubrium
      {
        OFFSET -5.722621 16.35077 3.967754
        CHANNELS 3 Zrotation Xrotation Yrotation
        JOINT right_clavicle
        {
          OFFSET -13.16364 1.694482 -4.693211
          CHANNELS 3 Zrotation Xrotation Yrotation
          JOINT right_humerus
          {
            OFFSET -28.5034 -0.3100689 -2.792744
            CHANNELS 3 Zrotation Xrotation Yrotation
            JOINT right_radius
            {
              OFFSET -25.15693 0.02248979 -1.271978
              CHANNELS 3 Zrotation Xrotation Yrotation
              End Site
              {
                OFFSET -15 0 0
              }
            }
          }
        }
      }
      JOINT left_manubrium
      {
        OFFSET 5.722621 16.35077 3.967754
        CHANNELS 3 Zrotation Xrotation Yrotation
        JOINT left_clavicle
        {
          OFFSET 13.16364 1.694482 -4.693211
          CHANNELS 3 Zrotation Xrotation Yrotation
          JOINT left_humerus
          {
            OFFSET 29.39168 -1.063119 -2.237045
            CHANNELS 3 Zrotation Xrotation Yrotation
            JOINT left_radius
            {
              OFFSET 24.59957 -0.9528479 0.9047498
              CHANNELS 3 Zrotation Xrotation Yrotation
              End Site
              {
                OFFSET 15 -0 -0
              }
            }
          }
        }
      }
    }
  }
}
MOTION
Frames: 11
Frame Time: 0.0416666666667
0 103.5113 0 0.4390883 -0.9127697 -0.1872623 4.522909 -17.58862 10.3684 -0 39.22499 -0 -5.357375 -15.60445 -3.484079 -6.71993 10.5978 -23.81873 -0 5.550892 -0 9.50415 -16.32222 28.25948 -3.512663 -3.179091 4.436637 2.614708 9.682464 -7.636207 1.421141 22.00142 7.105356 3.386896 -24.83323 9.667937 6.850743 -20.00447 11.87919 85.04166 36.4504 -18.36313 -0 0 16.58874 -7.093456 8.456265 4.437671 5.51522 -18.9634 -1.857353 -94.63485 27.19473 22.85402 0 0 -14.86338 7.460424 16.91212 5.449879
0.2858694 103.4094 1.381524 0.4194278 -1.253925 -0.3618274 4.357799 -17.32203 10.039 -0 39.61137 -0 -5.590681 -15.16098 -3.518349 -6.618669 10.79972 -23.58288 -0 5.667405 -0 9.219219 -16.26951 28.01547 -3.460669 -3.108305 4.274813 2.552963 9.716656 -7.61386 1.41838 22.15356 7.079336 3.32581 -24.71895 9.637369 6.599402 -19.94463 11.8316 85.32988 36.00305 -18.38463 -0 0 16.26505 -7.458305 8.38622 4.589485 5.426673 -19.03456 -2.018838 -94.33691 27.21376 22.44896 0 0 -14.85659 7.419955 16.94603 5.438927
0.5967324 103.066 3.085815 0.3068137 -0.3634228 -0.4535831 4.710821 -20.50331 9.414531 -0 35.14697 -0 -5.032464 -14.85886 -3.21443 -6.672366 11.31526 -22.98406 -0 5.23918 -0 8.749369 -17.94528 27.05334 -3.419576 -2.70873 4.46157 2.692462 9.236563 -7.49045 1.577408 21.84177 7.177348 3.304839 -25.16016 10.03848 6.221634 -19.51175 11.54338 85.30511 35.44039 -18.60665 -0 0 16.00911 -7.204838 8.380277 4.252906 6.090135 -19.31915 -1.598836 -93.70796 26.58344 21.33354 0 0 -15.91098 8.59263 16.54303 4.066762
0.8971465 102.4773 5.187258 0.1327495 0.2291791 -0.412712 4.928395 -23.35201 8.479516 -0 31.13227 -0 -4.867052 -13.82242 -3.007385 -6.592828 12.16602 -22.12777 -0 5.253668 -0 7.616249 -19.68002 25.64826 -3.281718 -2.275108 4.433064 2.77052 8.773298 -7.398312 1.726495 21.69584 7.262311 3.229545 -25.54565 10.39956 5.546223 -19.00083 11.18296 85.74954 34.45202 -19.07382 -0 0 15.26249 -7.297341 8.344202 4.066725 6.60261 -19.73086 -1.321344 -92.95754 26.46363 20.04269 0 0 -17.22924 9.13144 16.31909 3.463605
1.186653 101.7196 7.674861 -0.06696635 1.000269 -0.2408678 5.275175 -26.11409 7.776044 -0 27.37791 -0 -4.796757 -12.59714 -2.772906 -6.526711 12.91407 -21.34063 -0 5.603892 -0 6.545172 -21.21171 24.31139 -3.139594 -1.946669 4.422243 2.872584 8.397154 -7.387617 1.83218 21.45224 7.369911 3.244285 -25.97173 10.67933 5.086352 -18.53619 10.89703 86.13284 33.92059 -19.64242 -0 0 14.57156 -7.262499 8.386342 3.860394 7.095936 -20.16789 -1.002196 -92.39558 26.37418 19.08837 0 0 -18.5948 9.544759 16.08927 3.054143
1.449165 100.8373 10.59963 -0.3408749 1.729025 0.07817198 5.678375 -28.73124 7.074109 -0 23.92701 -0 -4.978576 -10.91716 -2.569959 -6.373834 13.78275 -20.43813 -0 6.484914 -0 5.148043 -22.58715 22.76214 -2.919535 -1.638698 4.297877 2.954065 8.06994 -7.427692 1.918368 21.22424 7.485392 3.292271 -26.36028 10.90083 4.625233 -18.0166 10.60878 86.66716 33.47142 -20.33824 -0 0 13.65925 -7.326167 8.492975 3.694247 7.523109 -20.66231 -0.7290371 -91.82311 26.44722 18.14195 0 0 -20.04374 9.714546 15.92302 2.953254
1.675819 99.90667 13.99433 -0.6987883 2.432835 0.5460702 6.199879 -31.04949 6.516261 -0 21.03406 -0 -5.400693 -8.930338 -2.383767 -6.128384 14.64433 -19.48315 -0 7.965974 -0 3.544965 -23.58608 21.10526 -2.611429 -1.380835 4.074146 3.014148 7.830155 -7.528008 1.967372 20.98106 7.60992 3.400693 -26.66992 11.02622 4.287554 -17.47254 10.35682 87.23864 33.29834 -21.0862 -0 0 12.65137 -7.432105 8.695627 3.564293 7.8657 -21.15888 -0.5076026 -91.30975 26.5844 17.32607 0 0 -21.40304 9.712424 15.7741 3.073833
1.858704 99.01264 17.90816 -1.164534 3.03331 1.151903 6.856796 -32.9195 6.090349 -0 18.8299 -0 -6.096568 -6.707597 -2.210483 -5.745443 15.46898 -18.413 -0 10.22351 -0 1.72226 -23.98855 19.30216 -2.169471 -1.166965 3.715826 3.040008 7.703662 -7.690513 1.963914 20.73901 7.733184 3.558402 -26.82833 11.01869 4.077037 -16.89394 10.15059 87.85145 33.38132 -21.83986 -0 0 11.53966 -7.648098 9.006479 3.510749 8.089601 -21.63758 -0.3894529 -90.79048 26.66819 16.56163 0 0 -22.56364 9.618178 15.58499 3.294429
1.997713 98.25858 22.38651 -1.747099 3.462217 1.857574 7.664254 -34.08425 5.822726 -0 17.47968 -0 -7.037449 -4.507096 -2.041505 -5.19994 16.12509 -17.20222 -0 13.44741 -0 -0.2335782 -23.49017 17.38127 -1.550878 -1.010136 3.22832 3.027327 7.725216 -7.916549 1.881307 20.50301 7.842284 3.746079 -26.77444 10.83444 4.023812 -16.31286 10.02036 88.46089 33.71842 -22.52465 -0 0 10.41583 -8.0059 9.425998 3.579489 8.144716 -22.04707 -0.4214215 -90.26388 26.55548 15.8784 0 0 -23.3542 9.507543 15.26945 3.501072
2.10488 97.76139 27.45555 -2.426152 3.614655 2.581174 8.574733 -34.16565 5.689939 -0 17.08218 -0 -8.127506 -2.762656 -1.890567 -4.492796 16.40465 -15.83044 -0 17.92926 -0 -2.197826 -21.76493 15.38952 -0.7212827 -0.9225621 2.661894 2.976312 7.918107 -8.188597 1.694332 20.29887 7.916967 3.915218 -26.46542 10.4478 4.109348 -15.78583 9.996972 89.01961 34.19137 -23.04806 -0 0 9.412546 -8.542452 9.924829 3.822222 7.96089 -22.31563 -0.6503557 -89.75852 26.12213 15.35191 0 0 -23.57853 9.418887 14.74109 3.62046
2.210125 97.64048 33.0823 -3.107428 3.365314 3.183544 9.41436 -32.67703 5.610269 -0 17.59653 -0 -9.16241 -2.098901 -1.809368 -3.699415 15.95631 -14.34641 -0 24.03608 -0 -4.005188 -18.62251 13.43057 0.2890487 -0.8995629 2.166099 2.887916 8.267312 -8.439331 1.401745 20.18472 7.933773 3.997511 -25.90231 9.887533 4.267791 -15.39566 10.10041 89.43972 34.56808 -23.28437 -0 0 8.730025 -9.250118 10.43305 4.252425 7.470956 -22.34332 -1.086793 -89.39412 25.37091 15.16956 0 0 -23.02876 9.293027 13.97264 3.710084
